# AST/ASF file generated using VICON BodyLanguage
# -----------------------------------------------
:version 1.10
:name VICON
:units
  mass 1.0
  length 0.45
  angle deg
:documentation
   .ast/.asf automatically generated from VICON data using
   VICON BodyBuilder and BodyLanguage model FoxedUp or BRILLIANT.MOD
:root
   order TX TY TZ RX RY RZ
   axis XYZ
   position 0 0 0  
   orientation 0 0 0 
:bonedata
  begin
     id 1 
     name lhipjoint
     direction 0.645893 -0.654526 0.392961 
     length 2.38111 
     axis 0 0 0  XYZ
  end
  begin
     id 2 
     name lfemur
     direction 0.34202 -0.939693 0  
     length 6.6822  
     axis 0 0 20  XYZ
    dof rx ry rz
    limits (-160.0 20.0)
           (-70.0 70.0)
           (-60.0 70.0)
  end
  begin
     id 3 
     name ltibia
     direction 0.34202 -0.939693 0   
     length 6.93904   
     axis 0 0 20   XYZ
    dof rx
    limits (-10.0 170.0)
  end
  begin
     id 4 
     name lfoot
     direction 0.0694967 -0.190941 0.979138   
     length 2.13616   
     axis -90 7.62852e-016 20   XYZ
    dof rx rz
    limits (-45.0 90.0)
           (-70.0 20.0)
  end
  begin
     id 5 
     name ltoes
     direction 1.535e-011 -4.2202e-011 1   
     length 1.07536   
     axis -90 7.62852e-016 20   XYZ
    dof rx
    limits (-90.0 20.0)
  end
  begin
     id 6 
     name rhipjoint
     direction -0.700219 -0.612087 0.367481   
     length 2.54621  
     axis 0 0 0  XYZ 
  end
  begin
     id 7 
     name rfemur
     direction -0.34202 -0.939693 0   
     length 6.55353   
     axis 0 0 -20   XYZ
    dof rx ry rz
    limits (-160.0 20.0)
           (-70.0 70.0)
           (-70.0 60.0)
  end
  begin
     id 8 
     name rtibia
     direction -0.34202 -0.939693 0   
     length 6.8736   
     axis 0 0 -20   XYZ
    dof rx
    limits (-10.0 170.0)
 end
 begin
     id 9 
     name rfoot
     direction -0.0679995 -0.186827 0.980037   
     length 2.1218  
     axis -90 -7.62852e-016 -20   XYZ
    dof rx rz
    limits (-45.0 90.0)
           (-20.0 70.0)
  end
  begin
     id 10 
     name rtoes
     direction -1.53589e-011 -4.21772e-011 1   
     length 1.06864   
     axis -90 -7.62852e-016 -20   XYZ
    dof rx
    limits (-90.0 20.0)
  end
  begin
     id 11 
     name lowerback
     direction -0.0416607 0.996347 -0.0745409   
     length 2.12205   
     axis 0 0 0   XYZ
    dof rx ry rz
    limits (-20.0 45.0)
           (-30.0 30.0)
           (-30.0 30.0)
  end
  begin
     id 12 
     name upperback
     direction -0.000153993 0.999276 -0.0380568   
     length 2.12759   
     axis 0 0 0   XYZ
    dof rx ry rz
    limits (-20.0 45.0)
           (-30.0 30.0)
           (-30.0 30.0)
  end
  begin
     id 13 
     name thorax
     direction 0.0187671 0.999821 -0.00241421   
     length 2.13704   
     axis 0 0 0   XYZ
    dof rx ry rz
    limits (-20.0 45.0)
           (-30.0 30.0)
           (-30.0 30.0)
  end
  begin
     id 14 
     name lowerneck
     direction 0.0268157 0.964865 0.261374   
     length 1.65253   
     axis 0 0 0   XYZ
    dof rx ry rz
    limits (-20.0 45.0)
           (-30.0 30.0)
           (-30.0 30.0)
  end
  begin
     id 15 
     name upperneck
     direction 0.00263774 0.939908 -0.341418   
     length 1.72375   
     axis 0 0 0   XYZ
    dof rx ry rz
    limits (-20.0 45.0)
           (-30.0 30.0)
           (-30.0 30.0)
  end
  begin
     id 16
     name head
     direction -0.00526001 0.989001 -0.147818  
     length 1.74878  
     axis 0 0 0   XYZ
    dof rx ry rz
    limits (-20.0 45.0)
           (-30.0 30.0)
           (-30.0 30.0)
  end
  begin
     id 17 
     name lclavicle
     direction 0.881214 0.461162 -0.103884  
     length 3.25108  
     axis 0 0 0   XYZ
    dof ry rz
    limits (-20.0 10.0)
           (0.0 20.0)
  end
  begin
     id 18 
     name lhumerus
     direction 1 -4.4899e-011 3.38092e-027   
     length 4.87408   
     axis 180 -30 -90   XYZ
    dof rx ry rz
    limits (-60.0 90.0)
           (-90.0 90.0)
           (-90.0 90.0)
  end
  begin
     id 19
     name lradius
     direction 1 -4.48931e-011 9.96288e-027   
     length 2.76729   
     axis 180 -30 -90   XYZ
    dof rx
    limits (-10.0 170.0)
  end
  begin
     id 20
     name lwrist
     direction 1 -4.4896e-011 1.50617e-026   
     length 1.38364   
     axis -9.31234e-015 90 90   XYZ
    dof ry
    limits (-180.0 0.0)
 end
  begin
     id 21 
     name lhand
     direction 1 -4.49038e-011 3.01286e-026   
     length 0.98922   
     axis -1.92217e-014 90 90   XYZ
    dof rx rz
    limits (-90.0 90.0)
           (-45.0 45.0)
  end
  begin
     id 22 
     name lfingers
     direction 1 -4.49051e-011 6.02588e-026   
     length 0.797535   
     axis -3.84436e-014 90 90   XYZ
    dof rx
    limits (0.0 90.0)
  end
  begin
     id 23
     name lthumb
     direction 0.707107 -6.34901e-011 0.707107   
     length 1.14511   
     axis -90 45 2.19363e-014   XYZ
    dof rx rz
    limits (-45.0 45.0)
           (-45.0 45.0)
  end
  begin
     id 24 
     name rclavicle
     direction -0.893894 0.441652 -0.0767889   
     length 3.29361  
     axis 0 0 0   XYZ 
    dof ry rz
    limits (-10.0 20.0)
           (-20.0 0.0)
  end
  begin
     id 25 
     name rhumerus
     direction -1 -4.48945e-011 8.0491e-028  
     length 4.71404   
     axis 180 30 90   XYZ
    dof rx ry rz
    limits (-90.0 60.0)
           (-90.0 90.0)
           (-90.0 90.0)
  end
  begin
     id 26 
     name rradius
     direction -1 -4.48986e-011 9.27795e-027   
     length 2.83468   
     axis 180 30 90   XYZ
    dof rx
    limits (-10.0 170.0)
  end
  begin
     id 27 
     name rwrist
     direction -1 -4.49029e-011 1.5064e-026   
     length 1.41734   
     axis -9.31234e-015 -90 -90   XYZ
    dof ry
    limits (-180.0 0.0)
  end
  begin
     id 28
     name rhand
     direction -1 -4.48857e-011 3.01165e-026   
     length 0.868195   
     axis -1.92217e-014 -90 -90   XYZ
    dof rx rz
    limits (-90.0 90.0)
           (-45.0 45.0)
  end
  begin
     id 29
     name rfingers
     direction -1 -4.49048e-011 6.02585e-026   
     length 0.699961   
     axis -3.84436e-014 -90 -90   XYZ
    dof rx
    limits (0.0 90.0)
  end
  begin
     id 30
     name rthumb
     direction -0.707107 -6.34854e-011 0.707107   
     length 1.00501   
     axis -90 -45 -2.19363e-014   XYZ
    dof rx rz
    limits (-45.0 45.0)
           (-45.0 45.0)
  end
:hierarchy
  begin
    root lhipjoint rhipjoint lowerback
    lhipjoint lfemur
    lfemur ltibia
    ltibia lfoot
    lfoot ltoes
    rhipjoint rfemur
    rfemur rtibia
    rtibia rfoot
    rfoot rtoes
    lowerback upperback
    upperback thorax
    thorax lowerneck lclavicle rclavicle
    lowerneck upperneck
    upperneck head
    lclavicle lhumerus
    lhumerus lradius
    lradius lwrist
    lwrist lhand lthumb
    lhand lfingers
    rclavicle rhumerus
    rhumerus rradius
    rradius rwrist
    rwrist rhand rthumb
    rhand rfingers
  end

#!OML:ASF H:\ManfredObstacles\Project 1\Capture day 2\Session 1\male.ASF
:FULLY-SPECIFIED
:DEGREES
1
root 0.805625 16.4883 31.2129 -171.318 2.34295 177.089
lowerback -5.03579 -5.2933 -4.12819
upperback 0.745627 -6.61688 -2.12351
thorax 3.80248 -3.30468 -0.454214
lowerneck -28.3702 3.04872 7.50952
upperneck 42.4846 6.47891 -3.50521
head 23.9759 4.21747 -1.08359
rclavicle 7.28546e-014 1.74931e-014
rhumerus -79.5386 8.44 -78.8982
rradius 78.7176
rwrist 1.60273
rhand -7.83323 -5.39355
rfingers 7.12502
rthumb 18.0693 -34.5742
lclavicle 7.28546e-014 1.74931e-014
lhumerus -53.3421 -35.2041 93.5631
lradius 99.892
lwrist -21.4712
lhand -13.9702 1.77038
lfingers 7.12502
lthumb 12.1579 31.3971
rfemur -38.4282 4.58096 18.3854
rtibia 37.6255
rfoot 16.4933 -6.05517
rtoes -22.6783
lfemur -1.28518 -0.157701 -28.1258
ltibia 40.2937
lfoot 35.74 2.94502
ltoes 16.7418
2
root 0.824335 16.4291 30.9525 -171.57 2.58274 177.273
lowerback -4.83161 -5.06282 -4.00525
upperback 0.749072 -6.33553 -2.0988
thorax 3.67259 -3.16471 -0.449713
lowerneck -28.3667 3.10142 7.83496
upperneck 42.3387 6.4537 -3.75857
head 23.8871 4.2237 -1.29877
rclavicle 1.08437e-013 7.15625e-015
rhumerus -79.3369 8.58388 -79.2963
rradius 78.7633
rwrist 1.36264
rhand -7.71323 -5.22933
rfingers 7.12502
rthumb 18.1847 -34.3993
lclavicle 1.08437e-013 7.15625e-015
lhumerus -54.122 -34.7594 93.718
lradius 99.674
lwrist -21.4422
lhand -13.933 1.76576
lfingers 7.12502
lthumb 12.1937 31.3904
rfemur -37.3948 4.54004 18.9362
rtibia 38.1975
rfoot 16.9281 -5.21525
rtoes -25.8201
lfemur -1.94292 0.257802 -27.8343
ltibia 42.6275
lfoot 36.8785 3.01735
ltoes 18.1279
3
root 0.845515 16.3585 30.6966 -171.832 2.78955 177.378
lowerback -4.60909 -4.83983 -3.98499
upperback 0.767907 -6.05452 -2.09532
thorax 3.55788 -3.02565 -0.412549
lowerneck -28.5398 3.0343 7.66596
upperneck 42.2941 6.33063 -3.65397
head 23.8735 4.15457 -1.24231
rclavicle 4.09496e-014 7.15625e-014
rhumerus -79.0083 8.64779 -79.7191
rradius 78.7253
rwrist 1.42693
rhand -7.71149 -4.85805
rfingers 7.12502
rthumb 18.1864 -34.0279
lclavicle 4.09496e-014 7.15625e-014
lhumerus -54.7702 -34.1722 93.7398
lradius 99.4472
lwrist -21.1792
lhand -13.6935 1.82196
lfingers 7.12502
lthumb 12.4246 31.4327
rfemur -36.2787 4.06726 19.5677
rtibia 38.9816
rfoot 20.7744 -3.24876
rtoes -14.7435
lfemur -2.74053 0.728978 -27.5727
ltibia 45.2196
lfoot 36.9867 3.30273
ltoes 18.2948
4
root 0.866066 16.2773 30.443 -171.977 2.81491 177.619
lowerback -4.84276 -4.69172 -4.62724
upperback 1.04431 -5.84883 -1.4026
thorax 4.10944 -2.96644 0.625409
lowerneck -29.059 2.95556 7.0289
upperneck 42.1211 6.58772 -3.96495
head 23.9319 4.05169 -1.22289
rclavicle -2.93207e-014 -2.78299e-014
rhumerus -77.9194 9.21109 -79.3589
rradius 78.8361
rwrist 0.957828
rhand -7.83962 -5.20653
rfingers 7.12502
rthumb 18.0631 -34.3878
lclavicle -2.93207e-014 -2.78299e-014
lhumerus -54.6582 -32.9888 94.354
lradius 98.9032
lwrist -21.4729
lhand -13.7598 1.95208
lfingers 7.12502
lthumb 12.3607 31.5667
rfemur -35.179 3.87514 20.1497
rtibia 39.7295
rfoot 11.2814 -3.96171
rtoes -23.9139
lfemur -3.72811 1.15684 -27.0842
ltibia 47.7886
lfoot 35.2458 4.1455
ltoes 16.6786
5
root 0.887202 16.1936 30.1905 -172.138 2.89771 177.849
lowerback -4.73335 -4.48711 -4.72813
upperback 1.06901 -5.59569 -1.16093
thorax 4.09491 -2.85157 0.96029
lowerneck -29.148 2.88079 6.86011
upperneck 42.0195 6.58247 -4.09064
head 23.8717 3.99449 -1.26368
rclavicle 5.56597e-014 6.36111e-015
rhumerus -77.3987 9.40564 -79.5862
rradius 78.8194
rwrist 1.04138
rhand -8.07707 -5.09573
rfingers 7.12502
rthumb 17.8347 -34.2979
lclavicle 5.56597e-014 6.36111e-015
lhumerus -55.1585 -32.184 94.6112
lradius 98.496
lwrist -21.5657
lhand -13.7398 1.97863
lfingers 7.12502
lthumb 12.38 31.5921
rfemur -34.1419 3.72132 20.7173
rtibia 40.5334
rfoot 8.14129 -4.03658
rtoes -25.004
lfemur -4.71464 1.55636 -26.6315
ltibia 50.4299
lfoot 34.0448 4.86845
ltoes 15.9427
6
root 0.90886 16.1047 29.9405 -172.268 2.94224 178.116
lowerback -4.53565 -4.26792 -4.7299
upperback 1.01657 -5.33317 -0.965266
thorax 3.93276 -2.72515 1.20548
lowerneck -29.1126 2.76249 6.70846
upperneck 41.955 6.50638 -4.16461
head 23.7846 3.93313 -1.29833
rclavicle -9.38264e-014 -9.93923e-015
rhumerus -76.9361 9.50334 -79.9283
rradius 78.7503
rwrist 1.32586
rhand -8.45168 -4.87791
rfingers 7.12502
rthumb 17.4742 -34.1125
lclavicle -9.38264e-014 -9.93923e-015
lhumerus -55.7506 -31.3811 94.8235
lradius 98.0355
lwrist -21.6692
lhand -13.7639 1.94654
lfingers 7.12502
lthumb 12.3567 31.5614
rfemur -33.116 3.60845 21.3047
rtibia 41.3175
rfoot 4.97751 -4.49407
rtoes -25.8869
lfemur -5.81896 1.91686 -26.1158
ltibia 53.162
lfoot 32.3673 5.73568
ltoes 14.8889
7
root 0.930702 16.0129 29.6938 -172.382 2.96041 178.444
lowerback -4.21866 -4.02463 -4.62017
upperback 0.898232 -5.05086 -0.803671
thorax 3.61873 -2.58209 1.36653
lowerneck -28.9646 2.62416 6.62534
upperneck 41.8883 6.3705 -4.22986
head 23.6493 3.87007 -1.35825
rclavicle -4.63665e-014 5.1684e-015
rhumerus -76.5028 9.4956 -80.3765
rradius 78.6544
rwrist 1.7409
rhand -8.93728 -4.63315
rfingers 7.12502
rthumb 17.0068 -33.9087
lclavicle -4.63665e-014 5.1684e-015
lhumerus -56.3906 -30.5913 94.9794
lradius 97.5043
lwrist -21.7779
lhand -13.8287 1.8493
lfingers 7.12502
lthumb 12.2943 31.4679
rfemur -32.1106 3.54936 21.9455
rtibia 42.0803
rfoot 1.96101 -5.24883
rtoes -26.7273
lfemur -7.0232 2.22818 -25.5201
ltibia 55.9332
lfoot 30.4113 6.65915
ltoes 13.5369
8
root 0.951707 15.9199 29.4507 -172.498 2.97436 178.819
lowerback -3.77647 -3.74974 -4.41044
upperback 0.740991 -4.73556 -0.675828
thorax 3.18044 -2.41724 1.4472
lowerneck -28.7677 2.45908 6.57283
upperneck 41.8361 6.17253 -4.26885
head 23.5011 3.79816 -1.42614
rclavicle 3.90612e-014 1.59028e-015
rhumerus -76.0386 9.37843 -80.9275
rradius 78.5743
rwrist 2.18767
rhand -9.48629 -4.52455
rfingers 7.12502
rthumb 16.4783 -33.8448
lclavicle 3.90612e-014 1.59028e-015
lhumerus -57.0124 -29.8127 95.0636
lradius 96.8797
lwrist -21.8798
lhand -13.9261 1.72476
lfingers 7.12502
lthumb 12.2004 31.3489
rfemur -31.1159 3.51037 22.6368
rtibia 42.8122
rfoot -0.254085 -6.09872
rtoes -26.6773
lfemur -8.31737 2.49703 -24.8698
ltibia 58.741
lfoot 28.3306 7.58008
ltoes 12.0494
9
root 0.971181 15.8258 29.2127 -172.644 2.99986 179.243
lowerback -3.21938 -3.44915 -4.10354
upperback 0.587682 -4.39144 -0.569672
thorax 2.67228 -2.23528 1.4552
lowerneck -28.5749 2.27638 6.48817
upperneck 41.784 5.93877 -4.26249
head 23.3449 3.7131 -1.47204
rclavicle 3.11595e-014 2.50469e-014
rhumerus -75.4477 9.182 -81.5609
rradius 78.5272
rwrist 2.53878
rhand -10.0227 -4.61326
rfingers 7.12502
rthumb 15.9618 -33.9756
lclavicle 3.11595e-014 2.50469e-014
lhumerus -57.5428 -29.0129 95.0543
lradius 96.1465
lwrist -21.9941
lhand -14.0735 1.62023
lfingers 7.12502
lthumb 12.0582 31.2528
rfemur -30.1033 3.46846 23.387
rtibia 43.5045
rfoot -2.2851 -7.04633
rtoes -26.4394
lfemur -9.67848 2.73616 -24.1654
ltibia 61.5639
lfoot 26.2405 8.45528
ltoes 10.3338
10
root 0.988391 15.7326 28.9798 -172.841 3.04835 179.714
lowerback -2.64987 -3.12717 -3.81726
upperback 0.542732 -4.01387 -0.387111
thorax 2.277 -2.04189 1.54344
lowerneck -28.5228 2.11305 6.34409
upperneck 41.6532 5.73856 -4.30418
head 23.1793 3.60694 -1.52477
rclavicle -4.91992e-015 1.03368e-014
rhumerus -74.5183 8.98701 -82.1154
rradius 78.4893
rwrist 2.75189
rhand -10.5195 -4.87691
rfingers 7.12502
rthumb 15.4833 -34.2769
lclavicle -4.91992e-015 1.03368e-014
lhumerus -57.7654 -28.126 95.007
lradius 95.252
lwrist -22.1031
lhand -14.2795 1.59927
lfingers 7.12502
lthumb 11.8596 31.2434
rfemur -29.0599 3.44208 24.177
rtibia 44.1559
rfoot -4.13969 -8.06215
rtoes -26.1595
lfemur -11.0791 2.95524 -23.412
ltibia 64.3701
lfoot 24.2226 9.27567
ltoes 8.51814
11
root 1.00238 15.6403 28.7528 -173.086 3.13647 180.222
lowerback -1.99609 -2.78946 -3.42337
upperback 0.544298 -3.61365 -0.227029
thorax 1.87424 -1.83597 1.54513
lowerneck -28.5448 1.994 6.2471
upperneck 41.4849 5.56135 -4.35718
head 23.018 3.50724 -1.58637
rclavicle -1.73937e-014 1.39149e-014
rhumerus -73.3505 8.75887 -82.7405
rradius 78.4751
rwrist 2.77884
rhand -10.9365 -5.37267
rfingers 7.12502
rthumb 15.0817 -34.8033
lclavicle -1.73937e-014 1.39149e-014
lhumerus -57.8485 -27.1759 94.845
lradius 94.222
lwrist -22.2536
lhand -14.5385 1.71834
lfingers 7.12502
lthumb 11.6098 31.3767
rfemur -27.9851 3.44101 24.9824
rtibia 44.7695
rfoot -5.77938 -9.07759
rtoes -26.0462
lfemur -12.5154 3.17043 -22.6274
ltibia 67.1393
lfoot 22.3124 10.0858
ltoes 6.7351
12
root 1.01391 15.5495 28.5314 -173.356 3.2737 180.774
lowerback -1.31713 -2.43728 -2.93236
upperback 0.610765 -3.18633 -0.0811317
thorax 1.51967 -1.61663 1.46944
lowerneck -28.6238 1.89392 6.1286
upperneck 41.2813 5.38843 -4.38207
head 22.847 3.40135 -1.62755
rclavicle -7.45443e-016 -1.15295e-014
rhumerus -71.8988 8.50572 -83.4135
rradius 78.3855
rwrist 2.87063
rhand -11.3658 -5.86651
rfingers 7.12502
rthumb 14.6681 -35.3277
lclavicle -7.45443e-016 -1.15295e-014
lhumerus -57.7682 -26.1704 94.5576
lradius 93.0739
lwrist -22.3496
lhand -14.7999 1.97732
lfingers 7.12502
lthumb 11.3577 31.6498
rfemur -26.8942 3.49058 25.8
rtibia 45.3443
rfoot -7.21945 -10.0299
rtoes -26.0196
lfemur -14.0008 3.39473 -21.8017
ltibia 69.8446
lfoot 20.5225 10.9532
ltoes 5.06672
13
root 1.02319 15.4618 28.3143 -173.621 3.45347 181.346
lowerback -0.633539 -2.07961 -2.36947
upperback 0.721464 -2.74062 0.0475357
thorax 1.20775 -1.38785 1.32609
lowerneck -28.58 1.82308 6.04119
upperneck 41.2858 5.26629 -4.45597
head 22.2277 3.28655 -1.64756
rclavicle 2.05245e-014 -1.98785e-015
rhumerus -70.1998 8.2507 -84.136
rradius 78.2194
rwrist 3.0807
rhand -11.7999 -6.2813
rfingers 7.12502
rthumb 14.2498 -35.7724
lclavicle 2.05245e-014 -1.98785e-015
lhumerus -57.5715 -25.1048 94.152
lradius 91.8223
lwrist -22.4402
lhand -15.0346 2.41311
lfingers 7.12502
lthumb 11.1313 32.0979
rfemur -25.8142 3.60067 26.599
rtibia 45.8806
rfoot -8.50024 -10.8828
rtoes -26.0993
lfemur -15.5496 3.61907 -20.9586
ltibia 72.4562
lfoot 18.8443 11.9209
ltoes 3.52816
